<?xml version="1.0" ?><svg style="enable-background:new 0 0 64 64;" version="1.1" viewBox="0 0 64 64" xml:space="preserve" xmlns="http://www.w3.org/2000/svg" xmlns:xlink="http://www.w3.org/1999/xlink"><g id="basketball"/><g id="field"><path d="M60,11H4c-0.6,0-1,0.4-1,1v5v11v8v11v5c0,0.6,0.4,1,1,1h56c0.6,0,1-0.4,1-1v-5V36v-8V17v-5C61,11.4,60.6,11,60,11z M59,27   h-9c-2.8,0-5,2.2-5,5s2.2,5,5,5h9v9h-2c-7.7,0-14-6.3-14-14s6.3-14,14-14h2V27z M47,32c0-1.7,1.3-3,3-3v6C48.3,35,47,33.7,47,32z    M52,29h7v6h-7V29z M32,37c-2.8,0-5-2.2-5-5s2.2-5,5-5s5,2.2,5,5S34.8,37,32,37z M17,32c0,1.7-1.3,3-3,3v-6C15.7,29,17,30.3,17,32z    M12,35H5v-6h7V35z M5,37h9c2.8,0,5-2.2,5-5s-2.2-5-5-5H5v-9h2c7.7,0,14,6.3,14,14S14.7,46,7,46H5V37z M5,48h2c8.8,0,16-7.2,16-16   S15.8,16,7,16H5v-3h26v12.1c-3.4,0.5-6,3.4-6,6.9s2.6,6.4,6,6.9V51H5V48z M33,51V38.9c3.4-0.5,6-3.4,6-6.9s-2.6-6.4-6-6.9V13h26v3   h-2c-8.8,0-16,7.2-16,16s7.2,16,16,16h2v3H33z"/></g><g id="basket"/><g id="trophy"/><g id="league_1_"/><g id="player"/><g id="uniform_1_"/><g id="scoreboard"/><g id="medal"/><g id="shoe_1_"/><g id="ticket_1_"/><g id="event_1_"/><g id="time"/><g id="strategy_1_"/><g id="supporter"/><g id="whistle"/><g id="podium"/><g id="bag"/><g id="bottle"/><g id="badge"/></svg>